<svg xmlns="http://www.w3.org/2000/svg" viewBox="0 0 400 800" fill="none" stroke="#888" stroke-width="1.5">
  <!-- Head (back view) -->
  <ellipse cx="200" cy="50" rx="35" ry="42" />
  <!-- Neck -->
  <line x1="185" y1="90" x2="185" y2="115" />
  <line x1="215" y1="90" x2="215" y2="115" />
  <!-- Shoulders -->
  <path d="M185 115 Q160 118 100 135" />
  <path d="M215 115 Q240 118 300 135" />
  <!-- Torso -->
  <line x1="100" y1="135" x2="95" y2="180" />
  <line x1="300" y1="135" x2="305" y2="180" />
  <!-- Arms -->
  <path d="M95 180 L75 280 L65 350" />
  <path d="M305 180 L325 280 L335 350" />
  <!-- Hands -->
  <ellipse cx="60" cy="360" rx="12" ry="18" />
  <ellipse cx="340" cy="360" rx="12" ry="18" />
  <!-- Back -->
  <line x1="100" y1="180" x2="115" y2="300" />
  <line x1="300" y1="180" x2="285" y2="300" />
  <!-- Spine -->
  <line x1="200" y1="115" x2="200" y2="390" stroke="#ccc" stroke-dasharray="3 3" stroke-width="0.8" />
  <!-- Shoulder blades -->
  <path d="M150 170 Q160 200 150 230" stroke="#ccc" />
  <path d="M250 170 Q240 200 250 230" stroke="#ccc" />
  <!-- Waist -->
  <path d="M115 300 Q130 310 140 320" />
  <path d="M285 300 Q270 310 260 320" />
  <!-- Buttocks -->
  <path d="M140 320 Q130 360 135 390" />
  <path d="M260 320 Q270 360 265 390" />
  <path d="M175 340 Q200 380 225 340" stroke="#ccc" />
  <!-- Legs -->
  <line x1="135" y1="390" x2="145" y2="560" />
  <line x1="265" y1="390" x2="255" y2="560" />
  <line x1="175" y1="390" x2="180" y2="560" />
  <line x1="225" y1="390" x2="220" y2="560" />
  <!-- Knees -->
  <ellipse cx="162" cy="565" rx="20" ry="12" />
  <ellipse cx="238" cy="565" rx="20" ry="12" />
  <!-- Lower legs -->
  <line x1="145" y1="575" x2="148" y2="700" />
  <line x1="180" y1="575" x2="177" y2="700" />
  <line x1="220" y1="575" x2="223" y2="700" />
  <line x1="255" y1="575" x2="252" y2="700" />
  <!-- Feet -->
  <path d="M148 700 Q140 720 130 730 L185 730 Q177 720 177 700" />
  <path d="M223 700 Q223 720 215 730 L270 730 Q260 720 252 700" />
  <!-- Center line -->
  <line x1="200" y1="8" x2="200" y2="730" stroke="#ddd" stroke-dasharray="4 4" stroke-width="0.5" />
</svg>
