<svg xmlns="http://www.w3.org/2000/svg" width="800" height="1000" viewBox="0 0 400 500" fill="none" stroke="#888" stroke-width="1.5">
  <!-- Male face outline - oval -->
  <ellipse cx="200" cy="220" rx="120" ry="155" />
  <!-- Ears -->
  <ellipse cx="78" cy="220" rx="14" ry="28" />
  <ellipse cx="322" cy="220" rx="14" ry="28" />
  <!-- Eyes -->
  <ellipse cx="155" cy="195" rx="22" ry="10" />
  <ellipse cx="245" cy="195" rx="22" ry="10" />
  <circle cx="155" cy="195" r="5" fill="#888" />
  <circle cx="245" cy="195" r="5" fill="#888" />
  <!-- Eyebrows -->
  <path d="M130 175 Q155 165 180 175" />
  <path d="M220 175 Q245 165 270 175" />
  <!-- Nose -->
  <path d="M200 210 L190 255 Q200 262 210 255 Z" />
  <!-- Mouth -->
  <path d="M168 290 Q200 310 232 290" />
  <line x1="168" y1="290" x2="232" y2="290" />
  <!-- Neck -->
  <line x1="170" y1="370" x2="160" y2="450" />
  <line x1="230" y1="370" x2="240" y2="450" />
  <!-- Shoulders -->
  <path d="M160 450 Q120 455 60 470" />
  <path d="M240 450 Q280 455 340 470" />
  <!-- Hair outline -->
  <path d="M80 195 Q80 80 200 65 Q320 80 320 195" stroke-width="2" />
  <!-- Center line (helper) -->
  <line x1="200" y1="65" x2="200" y2="450" stroke="#ddd" stroke-dasharray="4 4" stroke-width="0.5" />
</svg>
