<svg xmlns="http://www.w3.org/2000/svg" width="800" height="1000" viewBox="0 0 400 500" fill="none" stroke="#888" stroke-width="1.2">
  <!-- Upper jaw label -->
  <text x="200" y="25" text-anchor="middle" fill="#888" font-size="14" font-family="sans-serif" stroke="none">Upper</text>
  <!-- Upper jaw outline -->
  <path d="M80 120 Q80 40 200 35 Q320 40 320 120" stroke-width="1.5" />
  <!-- Upper teeth (16 teeth) -->
  <!-- Right side (patient's right = our left) -->
  <rect x="85" y="60" width="22" height="28" rx="4" />
  <rect x="110" y="50" width="20" height="32" rx="4" />
  <rect x="133" y="45" width="18" height="34" rx="3" />
  <rect x="153" y="42" width="16" height="35" rx="3" />
  <rect x="171" y="40" width="14" height="36" rx="2" />
  <rect x="187" y="38" width="12" height="38" rx="2" />
  <!-- Left side -->
  <rect x="201" y="38" width="12" height="38" rx="2" />
  <rect x="215" y="40" width="14" height="36" rx="2" />
  <rect x="231" y="42" width="16" height="35" rx="3" />
  <rect x="249" y="45" width="18" height="34" rx="3" />
  <rect x="270" y="50" width="20" height="32" rx="4" />
  <rect x="293" y="60" width="22" height="28" rx="4" />
  <!-- Tooth numbers (FDI) -->
  <text x="96" y="105" text-anchor="middle" fill="#aaa" font-size="9" font-family="sans-serif" stroke="none">18</text>
  <text x="120" y="100" text-anchor="middle" fill="#aaa" font-size="9" font-family="sans-serif" stroke="none">17</text>
  <text x="142" y="97" text-anchor="middle" fill="#aaa" font-size="9" font-family="sans-serif" stroke="none">16</text>
  <text x="161" y="95" text-anchor="middle" fill="#aaa" font-size="9" font-family="sans-serif" stroke="none">15</text>
  <text x="178" y="93" text-anchor="middle" fill="#aaa" font-size="9" font-family="sans-serif" stroke="none">14</text>
  <text x="193" y="92" text-anchor="middle" fill="#aaa" font-size="9" font-family="sans-serif" stroke="none">13</text>
  <text x="207" y="92" text-anchor="middle" fill="#aaa" font-size="9" font-family="sans-serif" stroke="none">23</text>
  <text x="222" y="93" text-anchor="middle" fill="#aaa" font-size="9" font-family="sans-serif" stroke="none">24</text>
  <text x="239" y="95" text-anchor="middle" fill="#aaa" font-size="9" font-family="sans-serif" stroke="none">25</text>
  <text x="258" y="97" text-anchor="middle" fill="#aaa" font-size="9" font-family="sans-serif" stroke="none">26</text>
  <text x="280" y="100" text-anchor="middle" fill="#aaa" font-size="9" font-family="sans-serif" stroke="none">27</text>
  <text x="304" y="105" text-anchor="middle" fill="#aaa" font-size="9" font-family="sans-serif" stroke="none">28</text>
  <!-- Divider -->
  <line x1="60" y1="250" x2="340" y2="250" stroke="#ccc" stroke-dasharray="4 4" />
  <text x="40" y="255" fill="#aaa" font-size="10" font-family="sans-serif" stroke="none">R</text>
  <text x="355" y="255" fill="#aaa" font-size="10" font-family="sans-serif" stroke="none">L</text>
  <!-- Lower jaw label -->
  <text x="200" y="490" text-anchor="middle" fill="#888" font-size="14" font-family="sans-serif" stroke="none">Lower</text>
  <!-- Lower jaw outline -->
  <path d="M80 380 Q80 460 200 465 Q320 460 320 380" stroke-width="1.5" />
  <!-- Lower teeth (16 teeth) -->
  <rect x="88" y="405" width="20" height="26" rx="4" />
  <rect x="111" y="410" width="19" height="28" rx="4" />
  <rect x="133" y="415" width="17" height="30" rx="3" />
  <rect x="152" y="418" width="15" height="30" rx="3" />
  <rect x="169" y="420" width="14" height="32" rx="2" />
  <rect x="185" y="422" width="12" height="32" rx="2" />
  <rect x="199" y="422" width="12" height="32" rx="2" />
  <rect x="213" y="420" width="14" height="32" rx="2" />
  <rect x="229" y="418" width="15" height="30" rx="3" />
  <rect x="246" y="415" width="17" height="30" rx="3" />
  <rect x="266" y="410" width="19" height="28" rx="4" />
  <rect x="288" y="405" width="20" height="26" rx="4" />
  <!-- Lower tooth numbers -->
  <text x="98" y="400" text-anchor="middle" fill="#aaa" font-size="9" font-family="sans-serif" stroke="none">48</text>
  <text x="120" y="405" text-anchor="middle" fill="#aaa" font-size="9" font-family="sans-serif" stroke="none">47</text>
  <text x="141" y="410" text-anchor="middle" fill="#aaa" font-size="9" font-family="sans-serif" stroke="none">46</text>
  <text x="160" y="413" text-anchor="middle" fill="#aaa" font-size="9" font-family="sans-serif" stroke="none">45</text>
  <text x="176" y="415" text-anchor="middle" fill="#aaa" font-size="9" font-family="sans-serif" stroke="none">44</text>
  <text x="191" y="418" text-anchor="middle" fill="#aaa" font-size="9" font-family="sans-serif" stroke="none">43</text>
  <text x="205" y="418" text-anchor="middle" fill="#aaa" font-size="9" font-family="sans-serif" stroke="none">33</text>
  <text x="220" y="415" text-anchor="middle" fill="#aaa" font-size="9" font-family="sans-serif" stroke="none">34</text>
  <text x="236" y="413" text-anchor="middle" fill="#aaa" font-size="9" font-family="sans-serif" stroke="none">35</text>
  <text x="254" y="410" text-anchor="middle" fill="#aaa" font-size="9" font-family="sans-serif" stroke="none">36</text>
  <text x="275" y="405" text-anchor="middle" fill="#aaa" font-size="9" font-family="sans-serif" stroke="none">37</text>
  <text x="298" y="400" text-anchor="middle" fill="#aaa" font-size="9" font-family="sans-serif" stroke="none">38</text>
  <!-- Center vertical line -->
  <line x1="200" y1="30" x2="200" y2="475" stroke="#ddd" stroke-dasharray="4 4" stroke-width="0.5" />
</svg>
